# WaveFront *.obj file (generated by Cinema 4D)

mtllib ./cone.mtl

v 0.000000 -56.000000 0.000000
v 0.000000 56.000000 0.000000
v 139.000000 -56.000000 0.000000
v 110.500000 -28.000000 0.000000
v 82.000000 0.000000 0.000000
v 53.500000 28.000000 0.000000
v 25.000000 56.000000 0.000000
v 98.287843 -56.000000 -98.287843
v 78.135299 -28.000000 -78.135299
v 57.982756 0.000000 -57.982756
v 37.830213 28.000000 -37.830213
v 17.677670 56.000000 -17.677670
v 0.000000 -56.000000 -139.000000
v 0.000000 -28.000000 -110.500000
v 0.000000 0.000000 -82.000000
v 0.000000 28.000000 -53.500000
v 0.000000 56.000000 -25.000000
v -98.287843 -56.000000 -98.287843
v -78.135299 -28.000000 -78.135299
v -57.982756 0.000000 -57.982756
v -37.830213 28.000000 -37.830213
v -17.677670 56.000000 -17.677670
v -139.000000 -56.000000 -0.000000
v -110.500000 -28.000000 -0.000000
v -82.000000 0.000000 -0.000000
v -53.500000 28.000000 -0.000000
v -25.000000 56.000000 -0.000000
v -98.287843 -56.000000 98.287843
v -78.135299 -28.000000 78.135299
v -57.982756 0.000000 57.982756
v -37.830213 28.000000 37.830213
v -17.677670 56.000000 17.677670
v -0.000000 -56.000000 139.000000
v -0.000000 -28.000000 110.500000
v -0.000000 0.000000 82.000000
v -0.000000 28.000000 53.500000
v -0.000000 56.000000 25.000000
v 98.287843 -56.000000 98.287843
v 78.135299 -28.000000 78.135299
v 57.982756 0.000000 57.982756
v 37.830213 28.000000 37.830213
v 17.677670 56.000000 17.677670
# 42 vertices

vn 0.000000 -1.000000 0.000000
vn 0.700822 0.713336 0.000000
vn 0.700822 0.713336 0.000000
vn 0.495556 0.713336 -0.495556
vn 0.495556 0.713336 -0.495556
vn 0.700822 0.713336 0.000000
vn 0.495556 0.713336 -0.495556
vn 0.495556 0.713336 -0.495556
vn 0.700822 0.713336 0.000000
vn 0.495556 0.713336 -0.495556
vn 0.000000 1.000000 0.000000
vn 0.000000 0.713336 -0.700822
vn 0.000000 0.713336 -0.700822
vn 0.000000 0.713336 -0.700822
vn -0.495556 0.713336 -0.495556
vn -0.495556 0.713336 -0.495556
vn -0.495556 0.713336 -0.495556
vn -0.495556 0.713336 -0.495556
vn -0.700822 0.713336 -0.000000
vn -0.700822 0.713336 0.000000
vn -0.700822 0.713336 -0.000000
vn -0.700822 0.713336 0.000000
vn -0.495556 0.713336 0.495556
vn -0.495556 0.713336 0.495556
vn -0.495556 0.713336 0.495556
vn -0.495556 0.713336 0.495556
vn -0.495556 0.713336 0.495556
vn 0.000000 0.713336 0.700822
vn -0.000000 0.713336 0.700822
vn 0.000000 0.713336 0.700822
vn 0.495556 0.713336 0.495556
vn 0.495556 0.713336 0.495556
vn 0.495556 0.713336 0.495556
vn 0.495556 0.713336 0.495556
# 34 normals

vt 0.500000 0.500000 0.000000
vt 0.000000 0.500000 0.000000
vt 0.146447 0.853553 0.000000
vt 0.000000 1.000000 0.000000
vt 0.000000 0.000000 0.000000
vt 0.000000 0.250000 0.000000
vt 0.125000 0.250000 0.000000
vt 0.125000 0.000000 0.000000
vt 0.125000 0.500000 0.000000
vt 0.000000 0.750000 0.000000
vt 0.125000 0.750000 0.000000
vt 0.125000 1.000000 0.000000
vt 1.000000 0.500000 0.000000
vt 0.853553 0.853553 0.000000
vt 0.500000 1.000000 0.000000
vt 0.250000 0.250000 0.000000
vt 0.250000 0.000000 0.000000
vt 0.250000 0.500000 0.000000
vt 0.250000 0.750000 0.000000
vt 0.250000 1.000000 0.000000
vt 0.375000 0.250000 0.000000
vt 0.375000 0.000000 0.000000
vt 0.375000 0.500000 0.000000
vt 0.375000 0.750000 0.000000
vt 0.375000 1.000000 0.000000
vt 0.500000 0.250000 0.000000
vt 0.500000 0.000000 0.000000
vt 0.500000 0.750000 0.000000
vt 0.853553 0.146447 0.000000
vt 0.625000 0.250000 0.000000
vt 0.625000 0.000000 0.000000
vt 0.625000 0.500000 0.000000
vt 0.625000 0.750000 0.000000
vt 0.625000 1.000000 0.000000
vt 0.146447 0.146447 0.000000
vt 0.750000 0.250000 0.000000
vt 0.750000 0.000000 0.000000
vt 0.750000 0.500000 0.000000
vt 0.750000 0.750000 0.000000
vt 0.750000 1.000000 0.000000
vt 0.875000 0.250000 0.000000
vt 0.875000 0.000000 0.000000
vt 0.875000 0.500000 0.000000
vt 0.875000 0.750000 0.000000
vt 0.875000 1.000000 0.000000
vt 1.000000 0.250000 0.000000
vt 1.000000 0.000000 0.000000
vt 1.000000 0.750000 0.000000
vt 1.000000 1.000000 0.000000
# 49 texture coordinates

o C?ne
usemtl default
f 8/3/1 3/2/1 1/1/1
f 8/8/5 9/7/4 4/6/3 3/5/2
f 9/7/4 10/9/7 5/2/6 4/6/3
f 10/9/7 11/11/8 6/10/3 5/2/6
f 11/11/8 12/12/10 7/4/9 6/10/3
f 12/14/11 2/1/11 7/13/11
f 13/15/1 8/3/1 1/1/1
f 13/17/12 14/16/12 9/7/4 8/8/5
f 14/16/12 15/18/12 10/9/7 9/7/4
f 15/18/12 16/19/13 11/11/8 10/9/7
f 16/19/13 17/20/14 12/12/10 11/11/8
f 17/15/11 2/1/11 12/14/11
f 18/14/1 13/15/1 1/1/1
f 18/22/16 19/21/15 14/16/12 13/17/12
f 19/21/15 20/23/15 15/18/12 14/16/12
f 20/23/15 21/24/17 16/19/13 15/18/12
f 21/24/17 22/25/18 17/20/14 16/19/13
f 22/3/11 2/1/11 17/15/11
f 23/13/1 18/14/1 1/1/1
f 23/27/20 24/26/19 19/21/15 18/22/16
f 24/26/19 25/1/21 20/23/15 19/21/15
f 25/1/21 26/28/19 21/24/17 20/23/15
f 26/28/19 27/15/22 22/25/18 21/24/17
f 27/2/11 2/1/11 22/3/11
f 28/29/1 23/13/1 1/1/1
f 28/31/24 29/30/23 24/26/19 23/27/20
f 29/30/23 30/32/25 25/1/21 24/26/19
f 30/32/25 31/33/26 26/28/19 25/1/21
f 31/33/26 32/34/27 27/15/22 26/28/19
f 32/35/11 2/1/11 27/2/11
f 33/27/1 28/29/1 1/1/1
f 33/37/28 34/36/28 29/30/23 28/31/24
f 34/36/28 35/38/28 30/32/25 29/30/23
f 35/38/28 36/39/29 31/33/26 30/32/25
f 36/39/29 37/40/30 32/34/27 31/33/26
f 37/27/11 2/1/11 32/35/11
f 38/35/1 33/27/1 1/1/1
f 38/42/32 39/41/31 34/36/28 33/37/28
f 39/41/31 40/43/31 35/38/28 34/36/28
f 40/43/31 41/44/33 36/39/29 35/38/28
f 41/44/33 42/45/34 37/40/30 36/39/29
f 42/29/11 2/1/11 37/27/11
f 3/2/1 38/35/1 1/1/1
f 3/47/2 4/46/3 39/41/31 38/42/32
f 4/46/3 5/13/6 40/43/31 39/41/31
f 5/13/6 6/48/3 41/44/33 40/43/31
f 6/48/3 7/49/9 42/45/34 41/44/33
f 7/13/11 2/1/11 42/29/11

